<svg xmlns="http://www.w3.org/2000/svg" style="display:none" aria-hidden="true">
<symbol id="logo" viewBox="0 -8 697 104"><g transform="translate(0 -6) scale(.86)"><path d="M4.5 32V4.5H32M68 4.5h27.5V32M95.5 68v27.5H68M32 95.5H4.5V68" fill="none" stroke="currentColor" stroke-width="9"/><rect x="26" y="26" width="48" height="48" fill="var(--logo-sq, #e4cb3c)"/></g><path fill="currentColor" d="M4.7 0.0V-9.0L45.300000000000004 -66.9L48.800000000000004 -61.7H5.9V-72.0H58.300000000000004V-63.0L18.1 -5.6000000000000005L14.700000000000001 -10.3H58.900000000000006V0.0Z M96.80000000000001 0.0Q96.30000000000001 -2.0 96.05000000000001 -4.4Q95.80000000000001 -6.800000000000001 95.80000000000001 -10.200000000000001H95.4V-34.4Q95.4 -38.400000000000006 93.15 -40.45Q90.9 -42.5 86.30000000000001 -42.5Q81.80000000000001 -42.5 79.15 -40.85Q76.5 -39.2 75.9 -36.1H63.800000000000004Q64.60000000000001 -43.2 70.60000000000001 -47.6Q76.60000000000001 -52.0 86.7 -52.0Q97.20000000000002 -52.0 102.60000000000001 -47.25Q108.0 -42.5 108.0 -33.300000000000004V-10.200000000000001Q108.0 -7.800000000000001 108.35000000000001 -5.300000000000001Q108.70000000000002 -2.8000000000000003 109.4 0.0ZM79.10000000000001 1.0Q71.4 1.0 66.85000000000001 -2.85Q62.300000000000004 -6.7 62.300000000000004 -13.200000000000001Q62.300000000000004 -20.200000000000003 67.4 -24.300000000000004Q72.5 -28.400000000000002 81.80000000000001 -29.8L97.70000000000002 -32.2V-24.200000000000003L83.9 -22.1Q79.4 -21.400000000000002 77.15 -19.6Q74.9 -17.8 74.9 -14.600000000000001Q74.9 -11.700000000000001 77.0 -10.15Q79.10000000000001 -8.6 82.80000000000001 -8.6Q88.2 -8.6 91.80000000000001 -11.3Q95.4 -14.0 95.4 -17.900000000000002L96.80000000000001 -10.200000000000001Q94.80000000000001 -4.7 90.25 -1.85Q85.7 1.0 79.10000000000001 1.0Z  M134.6 0.0V-72.0H147.60000000000002V0.0ZM144.0 -37.4 178.10000000000002 -72.0H195.60000000000002L160.10000000000002 -37.4ZM179.70000000000002 0.0 143.8 -37.4H160.10000000000002L197.60000000000002 0.0Z M232.20000000000002 0.0Q231.70000000000002 -2.0 231.45000000000002 -4.4Q231.20000000000002 -6.800000000000001 231.20000000000002 -10.200000000000001H230.8V-34.4Q230.8 -38.400000000000006 228.55 -40.45Q226.3 -42.5 221.70000000000002 -42.5Q217.20000000000002 -42.5 214.55 -40.85Q211.9 -39.2 211.3 -36.1H199.20000000000002Q200.00000000000003 -43.2 206.00000000000003 -47.6Q212.00000000000003 -52.0 222.10000000000002 -52.0Q232.60000000000002 -52.0 238.00000000000003 -47.25Q243.40000000000003 -42.5 243.40000000000003 -33.300000000000004V-10.200000000000001Q243.40000000000003 -7.800000000000001 243.75000000000003 -5.300000000000001Q244.10000000000002 -2.8000000000000003 244.8 0.0ZM214.50000000000003 1.0Q206.8 1.0 202.25 -2.85Q197.70000000000002 -6.7 197.70000000000002 -13.200000000000001Q197.70000000000002 -20.200000000000003 202.8 -24.300000000000004Q207.9 -28.400000000000002 217.20000000000002 -29.8L233.10000000000002 -32.2V-24.200000000000003L219.3 -22.1Q214.8 -21.400000000000002 212.55 -19.6Q210.3 -17.8 210.3 -14.600000000000001Q210.3 -11.700000000000001 212.40000000000003 -10.15Q214.50000000000003 -8.6 218.20000000000002 -8.6Q223.60000000000002 -8.6 227.20000000000002 -11.3Q230.8 -14.0 230.8 -17.900000000000002L232.20000000000002 -10.200000000000001Q230.20000000000002 -4.7 225.65000000000003 -1.85Q221.10000000000002 1.0 214.50000000000003 1.0Z M282.8 1.0Q275.5 1.0 270.95 -2.45Q266.4 -5.9 265.3 -12.0L266.3 -12.100000000000001V20.5H253.7V-51.0H266.0V-39.5L265.0 -39.7Q266.4 -45.400000000000006 271.4 -48.7Q276.4 -52.0 283.6 -52.0Q290.4 -52.0 295.45 -48.75Q300.5 -45.5 303.3 -39.6Q306.1 -33.7 306.1 -25.700000000000003Q306.1 -17.6 303.20000000000005 -11.600000000000001Q300.3 -5.6000000000000005 295.1 -2.3000000000000003Q289.9 1.0 282.8 1.0ZM279.6 -9.4Q285.7 -9.4 289.29999999999995 -13.650000000000002Q292.9 -17.900000000000002 292.9 -25.6Q292.9 -33.300000000000004 289.25 -37.5Q285.6 -41.7 279.5 -41.7Q273.5 -41.7 269.8 -37.45Q266.1 -33.2 266.1 -25.5Q266.1 -17.8 269.8 -13.600000000000001Q273.5 -9.4 279.6 -9.4Z M313.3 0.0V-72.0H325.90000000000003V0.0Z M336.8 0.0V-51.0H349.40000000000003V0.0ZM336.20000000000005 -59.400000000000006V-73.3H349.90000000000003V-59.400000000000006Z M382.20000000000005 1.0Q374.50000000000006 1.0 368.65000000000003 -2.4000000000000004Q362.8 -5.800000000000001 359.45000000000005 -11.850000000000001Q356.1 -17.900000000000002 356.1 -25.6Q356.1 -33.300000000000004 359.45000000000005 -39.25Q362.8 -45.2 368.65000000000003 -48.6Q374.50000000000006 -52.0 382.20000000000005 -52.0Q388.50000000000006 -52.0 393.6 -49.650000000000006Q398.70000000000005 -47.300000000000004 402.00000000000006 -43.050000000000004Q405.30000000000007 -38.800000000000004 406.20000000000005 -33.2H394.1Q393.00000000000006 -37.300000000000004 389.90000000000003 -39.60000000000001Q386.8 -41.900000000000006 382.40000000000003 -41.900000000000006Q378.3 -41.900000000000006 375.35 -39.900000000000006Q372.40000000000003 -37.9 370.80000000000007 -34.2Q369.20000000000005 -30.5 369.20000000000005 -25.6Q369.20000000000005 -20.6 370.80000000000007 -16.900000000000002Q372.40000000000003 -13.200000000000001 375.40000000000003 -11.15Q378.40000000000003 -9.1 382.40000000000003 -9.1Q386.8 -9.1 389.90000000000003 -11.4Q393.00000000000006 -13.700000000000001 394.1 -17.8H406.20000000000005Q405.30000000000007 -12.200000000000001 401.95000000000005 -7.950000000000001Q398.6 -3.7 393.55000000000007 -1.35Q388.50000000000006 1.0 382.20000000000005 1.0ZM375.80000000000007 -58.300000000000004 362.70000000000005 -74.0H373.50000000000006L387.90000000000003 -61.0H377.00000000000006L391.40000000000003 -74.0H402.20000000000005L389.1 -58.300000000000004Z M412.8 0.0V-72.7H425.40000000000003V0.0ZM445.70000000000005 0.0 422.5 -26.5 445.0 -51.0H460.20000000000005L434.20000000000005 -24.200000000000003L434.90000000000003 -28.900000000000002L461.20000000000005 0.0Z M485.8 1.0Q477.70000000000005 1.0 471.55000000000007 -2.4000000000000004Q465.40000000000003 -5.800000000000001 462.0 -11.850000000000001Q458.6 -17.900000000000002 458.6 -25.700000000000003Q458.6 -33.5 462.0 -39.400000000000006Q465.40000000000003 -45.300000000000004 471.55000000000007 -48.650000000000006Q477.70000000000005 -52.0 485.8 -52.0Q494.00000000000006 -52.0 500.1 -48.650000000000006Q506.20000000000005 -45.300000000000004 509.6 -39.400000000000006Q513.0 -33.5 513.0 -25.700000000000003Q513.0 -17.900000000000002 509.55 -11.850000000000001Q506.1 -5.800000000000001 500.0 -2.4000000000000004Q493.90000000000003 1.0 485.8 1.0ZM485.8 -9.1Q489.8 -9.1 493.0 -11.15Q496.20000000000005 -13.200000000000001 498.00000000000006 -16.950000000000003Q499.80000000000007 -20.700000000000003 499.80000000000007 -25.8Q499.80000000000007 -33.300000000000004 495.85 -37.60000000000001Q491.90000000000003 -41.900000000000006 485.8 -41.900000000000006Q479.70000000000005 -41.900000000000006 475.70000000000005 -37.60000000000001Q471.70000000000005 -33.300000000000004 471.70000000000005 -25.8Q471.70000000000005 -20.700000000000003 473.55000000000007 -16.950000000000003Q475.40000000000003 -13.200000000000001 478.55000000000007 -11.15Q481.70000000000005 -9.1 485.8 -9.1Z M536.3000000000001 1.0Q531.0 1.0 527.1500000000001 -1.25Q523.3000000000001 -3.5 521.25 -7.4Q519.2 -11.3 519.2 -16.2V-51.0H531.8000000000001V-18.8Q531.8000000000001 -14.100000000000001 534.1500000000001 -11.700000000000001Q536.5 -9.3 540.8000000000001 -9.3Q544.7 -9.3 547.6500000000001 -11.100000000000001Q550.6 -12.9 552.35 -16.150000000000002Q554.1 -19.400000000000002 554.1 -23.5L555.4 -11.3Q552.9 -5.7 547.95 -2.35Q543.0 1.0 536.3000000000001 1.0ZM554.5 0.0V-12.0H554.1V-51.0H566.8000000000001V0.0Z" transform="translate(122 74)"/></symbol>
<symbol id="mark" viewBox="0 0 100 100"><path d="M4.5 32V4.5H32M68 4.5h27.5V32M95.5 68v27.5H68M32 95.5H4.5V68" fill="none" stroke="currentColor" stroke-width="9"/><rect x="26" y="26" width="48" height="48" fill="var(--logo-sq, #e4cb3c)"/></symbol>
</svg>
